Alegreya Sans-ExtraBold.ufo
<glyph name="asterisk" format="1">
  <advance width="388"/>
  <unicode hex="002A"/>
  <outline>
    <contour>
      <point x="41" y="453" type="line"/>
      <point x="40" y="442" type="line"/>
      <point x="66" y="427"/>
      <point x="93" y="412"/>
      <point x="119" y="405" type="curve"/>
      <point x="180" y="502" type="line"/>
      <point x="179" y="513" type="line"/>
      <point x="138" y="534" type="line"/>
    </contour>
    <contour>
      <point x="34" y="669" type="line"/>
      <point x="26" y="640"/>
      <point x="22" y="609"/>
      <point x="23" y="583" type="curve"/>
      <point x="132" y="552" type="line"/>
      <point x="142" y="556" type="line"/>
      <point x="150" y="602" type="line"/>
      <point x="45" y="672" type="line"/>
    </contour>
    <contour>
      <point x="198" y="504" type="line"/>
      <point x="243" y="383" type="line"/>
      <point x="252" y="380" type="line"/>
      <point x="276" y="399"/>
      <point x="297" y="419"/>
      <point x="313" y="442" type="curve"/>
      <point x="242" y="534" type="line"/>
      <point x="231" y="535" type="line"/>
    </contour>
    <contour>
      <point x="214" y="745"/>
      <point x="183" y="740"/>
      <point x="158" y="731" type="curve"/>
      <point x="163" y="614" type="line"/>
      <point x="171" y="607" type="line"/>
      <point x="216" y="612" type="line"/>
      <point x="248" y="737" type="line"/>
      <point x="244" y="746" type="line"/>
    </contour>
    <contour>
      <point x="231" y="603" type="line"/>
      <point x="226" y="593" type="line"/>
      <point x="247" y="552" type="line"/>
      <point x="372" y="559" type="line"/>
      <point x="378" y="566" type="line"/>
      <point x="368" y="595"/>
      <point x="353" y="622"/>
      <point x="338" y="644" type="curve"/>
    </contour>
  </outline>
</glyph>
<glyph name="plus" format="1">
  <advance width="480"/>
  <unicode hex="002B"/>
  <outline>
    <contour>
      <point x="187" y="471" type="line"/>
      <point x="187" y="311" type="line"/>
      <point x="28" y="311" type="line"/>
      <point x="20" y="216" type="line"/>
      <point x="30" y="205" type="line"/>
      <point x="187" y="205" type="line"/>
      <point x="187" y="48" type="line"/>
      <point x="198" y="38" type="line"/>
      <point x="294" y="45" type="line"/>
      <point x="294" y="205" type="line"/>
      <point x="453" y="205" type="line"/>
      <point x="461" y="301" type="line"/>
      <point x="450" y="311" type="line"/>
      <point x="294" y="311" type="line"/>
      <point x="294" y="469" type="line"/>
      <point x="283" y="479" type="line"/>
    </contour>
  </outline>
</glyph>
<glyph name="hyphen" format="1">
  <advance width="302"/>
  <unicode hex="002D"/>
  <outline>
    <contour>
      <point x="26" y="291" type="line"/>
      <point x="26" y="193" type="line"/>
      <point x="38" y="181" type="line"/>
      <point x="275" y="218" type="line"/>
      <point x="274" y="316" type="line"/>
      <point x="262" y="327" type="line"/>
    </contour>
  </outline>
</glyph>
<glyph name="four" format="1">
  <advance width="514"/>
  <unicode hex="0034"/>
  <outline>
    <contour>
      <point x="260" y="509" type="line"/>
      <point x="19" y="157" type="line"/>
      <point x="19" y="56" type="line"/>
      <point x="29" y="43" type="line"/>
      <point x="126" y="46" type="line"/>
      <point x="361" y="46" type="line"/>
      <point x="482" y="43" type="line"/>
      <point x="489" y="154" type="line"/>
      <point x="480" y="168" type="line"/>
      <point x="154" y="168" type="line"/>
      <point x="266" y="332" type="line"/>
      <point x="276" y="332" type="line"/>
      <point x="277" y="137" type="line"/>
      <point x="270" y="-86" type="line"/>
      <point x="279" y="-96" type="line"/>
      <point x="402" y="-88" type="line"/>
      <point x="411" y="-77" type="line"/>
      <point x="402" y="107" type="line"/>
      <point x="406" y="509" type="line"/>
    </contour>
  </outline>
</glyph>
<glyph name="eight" format="1">
  <advance width="502"/>
  <unicode hex="0038"/>
  <outline>
    <contour>
      <point x="139" y="596"/>
      <point x="56" y="532"/>
      <point x="56" y="425" type="curve" smooth="yes"/>
      <point x="56" y="353"/>
      <point x="97" y="313"/>
      <point x="145" y="287" type="curve"/>
      <point x="145" y="280" type="line"/>
      <point x="81" y="252"/>
      <point x="38" y="212"/>
      <point x="38" y="142" type="curve" smooth="yes"/>
      <point x="38" y="54"/>
      <point x="107" y="-10"/>
      <point x="237" y="-10" type="curve" smooth="yes"/>
      <point x="371" y="-10"/>
      <point x="460" y="57"/>
      <point x="460" y="169" type="curve" smooth="yes"/>
      <point x="460" y="243"/>
      <point x="413" y="281"/>
      <point x="360" y="307" type="curve"/>
      <point x="360" y="314" type="line"/>
      <point x="412" y="348"/>
      <point x="445" y="389"/>
      <point x="445" y="447" type="curve" smooth="yes"/>
      <point x="445" y="538"/>
      <point x="378" y="596"/>
      <point x="264" y="596" type="curve" smooth="yes"/>
    </contour>
    <contour>
      <point x="288" y="220"/>
      <point x="331" y="201"/>
      <point x="331" y="157" type="curve" smooth="yes"/>
      <point x="331" y="124"/>
      <point x="305" y="95"/>
      <point x="250" y="95" type="curve" smooth="yes"/>
      <point x="198" y="95"/>
      <point x="169" y="122"/>
      <point x="169" y="163" type="curve" smooth="yes"/>
      <point x="169" y="205"/>
      <point x="197" y="224"/>
      <point x="238" y="240" type="curve"/>
    </contour>
    <contour>
      <point x="295" y="488"/>
      <point x="320" y="465"/>
      <point x="320" y="429" type="curve" smooth="yes"/>
      <point x="320" y="393"/>
      <point x="297" y="371"/>
      <point x="266" y="351" type="curve"/>
      <point x="222" y="369"/>
      <point x="184" y="389"/>
      <point x="184" y="431" type="curve" smooth="yes"/>
      <point x="184" y="465"/>
      <point x="208" y="488"/>
      <point x="253" y="488" type="curve" smooth="yes"/>
    </contour>
  </outline>
</glyph>
<glyph name="greater" format="1">
  <advance width="480"/>
  <unicode hex="003E"/>
  <outline>
    <contour>
      <point x="34" y="384" type="line"/>
      <point x="40" y="373" type="line"/>
      <point x="337" y="266" type="line"/>
      <point x="337" y="258" type="line"/>
      <point x="40" y="154" type="line"/>
      <point x="62" y="65" type="line"/>
      <point x="75" y="55" type="line"/>
      <point x="447" y="194" type="line"/>
      <point x="447" y="322" type="line"/>
      <point x="437" y="336" type="line"/>
      <point x="67" y="475" type="line"/>
    </contour>
  </outline>
</glyph>
<glyph name="question" format="1">
  <advance width="345"/>
  <unicode hex="003F"/>
  <outline>
    <contour>
      <point x="69" y="664" type="line"/>
      <point x="40" y="576" type="line"/>
      <point x="51" y="562" type="line"/>
      <point x="181" y="554"/>
      <point x="225" y="529"/>
      <point x="225" y="484" type="curve" smooth="yes"/>
      <point x="225" y="455"/>
      <point x="206" y="431"/>
      <point x="172" y="414" type="curve" smooth="yes"/>
      <point x="85" y="374" type="line"/>
      <point x="79" y="363" type="line"/>
      <point x="90" y="241" type="line"/>
      <point x="101" y="230" type="line"/>
      <point x="212" y="246" type="line"/>
      <point x="205" y="325" type="line"/>
      <point x="208" y="330" type="line"/>
      <point x="274" y="368" type="line" smooth="yes"/>
      <point x="335" y="402"/>
      <point x="368" y="453"/>
      <point x="368" y="508" type="curve" smooth="yes"/>
      <point x="368" y="606"/>
      <point x="265" y="663"/>
      <point x="83" y="672" type="curve"/>
    </contour>
    <component base="period" xOffset="46"/>
  </outline>
</glyph>
<glyph name="A" format="1">
  <advance width="611"/>
  <unicode hex="0041"/>
  <outline>
    <contour>
      <point x="215" y="645" type="line"/>
      <point x="6" y="0" type="line"/>
      <point x="165" y="0" type="line"/>
      <point x="183" y="103" type="line"/>
      <point x="303" y="497" type="line"/>
      <point x="314" y="497" type="line"/>
      <point x="416" y="93" type="line"/>
      <point x="433" y="0" type="line"/>
      <point x="598" y="0" type="line"/>
      <point x="409" y="645" type="line"/>
    </contour>
    <contour>
      <point x="302" y="250" type="line"/>
      <point x="168" y="253" type="line"/>
      <point x="168" y="128" type="line"/>
      <point x="292" y="132" type="line"/>
      <point x="423" y="130" type="line"/>
      <point x="423" y="253" type="line"/>
    </contour>
    <contour>
      <point x="614" y="10" type="move" name="ogonek"/>
    </contour>
    <contour>
      <point x="307" y="645" type="move" name="top"/>
    </contour>
  </outline>
</glyph>
<glyph name="S" format="1">
  <advance width="510"/>
  <unicode hex="0053"/>
  <outline>
    <contour>
      <point x="145" y="655"/>
      <point x="44" y="565"/>
      <point x="44" y="447" type="curve" smooth="yes"/>
      <point x="44" y="254"/>
      <point x="320" y="265"/>
      <point x="320" y="168" type="curve" smooth="yes"/>
      <point x="320" y="140"/>
      <point x="297" y="111"/>
      <point x="244" y="111" type="curve" smooth="yes"/>
      <point x="199" y="111"/>
      <point x="126" y="135"/>
      <point x="66" y="185" type="curve"/>
      <point x="49" y="175" type="line"/>
      <point x="26" y="30" type="line"/>
      <point x="93" y="3"/>
      <point x="163" y="-10"/>
      <point x="227" y="-10" type="curve" smooth="yes"/>
      <point x="382" y="-10"/>
      <point x="481" y="82"/>
      <point x="481" y="197" type="curve" smooth="yes"/>
      <point x="481" y="387"/>
      <point x="203" y="382"/>
      <point x="203" y="474" type="curve" smooth="yes"/>
      <point x="203" y="502"/>
      <point x="229" y="529"/>
      <point x="276" y="529" type="curve" smooth="yes"/>
      <point x="312" y="529"/>
      <point x="367" y="509"/>
      <point x="418" y="476" type="curve"/>
      <point x="441" y="485" type="line"/>
      <point x="467" y="621" type="line"/>
      <point x="403" y="646"/>
      <point x="342" y="655"/>
      <point x="293" y="655" type="curve" smooth="yes"/>
    </contour>
    <contour>
      <point x="247" y="0" type="move" name="bottom"/>
    </contour>
    <contour>
      <point x="266" y="645" type="move" name="top"/>
    </contour>
  </outline>
</glyph>
<glyph name="W" format="1">
  <advance width="907"/>
  <unicode hex="0057"/>
  <outline>
    <contour>
      <point x="755" y="645" type="line"/>
      <point x="738" y="548" type="line"/>
      <point x="629" y="165" type="line"/>
      <point x="618" y="165" type="line"/>
      <point x="522" y="541" type="line"/>
      <point x="507" y="645" type="line"/>
      <point x="343" y="645" type="line"/>
      <point x="384" y="491" type="line"/>
      <point x="289" y="165" type="line"/>
      <point x="279" y="165" type="line"/>
      <point x="186" y="557" type="line"/>
      <point x="176" y="645" type="line"/>
      <point x="18" y="645" type="line"/>
      <point x="186" y="0" type="line"/>
      <point x="358" y="0" type="line"/>
      <point x="438" y="278" type="line"/>
      <point x="449" y="278" type="line"/>
      <point x="530" y="0" type="line"/>
      <point x="701" y="0" type="line"/>
      <point x="904" y="645" type="line"/>
    </contour>
    <contour>
      <point x="447" y="645" type="move" name="top"/>
    </contour>
  </outline>
</glyph>
<glyph name="X" format="1">
  <advance width="620"/>
  <unicode hex="0058"/>
  <outline>
    <contour>
      <point x="434" y="645" type="line"/>
      <point x="405" y="581" type="line"/>
      <point x="317" y="439" type="line"/>
      <point x="234" y="574" type="line"/>
      <point x="202" y="645" type="line"/>
      <point x="7" y="645" type="line"/>
      <point x="209" y="315" type="line"/>
      <point x="9" y="0" type="line"/>
      <point x="174" y="0" type="line"/>
      <point x="204" y="62" type="line"/>
      <point x="303" y="212" type="line"/>
      <point x="390" y="70" type="line"/>
      <point x="422" y="0" type="line"/>
      <point x="616" y="0" type="line"/>
      <point x="413" y="339" type="line"/>
      <point x="604" y="645" type="line"/>
    </contour>
  </outline>
</glyph>
<glyph name="asciicircum" format="1">
  <advance width="449"/>
  <unicode hex="005E"/>
  <outline>
    <contour>
      <point x="168" y="499" type="line"/>
      <point x="154" y="490" type="line"/>
      <point x="15" y="144" type="line"/>
      <point x="105" y="111" type="line"/>
      <point x="117" y="118" type="line"/>
      <point x="224" y="390" type="line"/>
      <point x="232" y="390" type="line"/>
      <point x="336" y="118" type="line"/>
      <point x="424" y="139" type="line"/>
      <point x="435" y="152" type="line"/>
      <point x="295" y="499" type="line"/>
    </contour>
  </outline>
</glyph>
<glyph name="a" format="1">
  <advance width="490"/>
  <unicode hex="0061"/>
  <outline>
    <contour>
      <point x="183" y="478"/>
      <point x="111" y="459"/>
      <point x="51" y="425" type="curve"/>
      <point x="69" y="322" type="line"/>
      <point x="80" y="315" type="line"/>
      <point x="139" y="353"/>
      <point x="183" y="369"/>
      <point x="224" y="369" type="curve" smooth="yes"/>
      <point x="263" y="369"/>
      <point x="281" y="352"/>
      <point x="281" y="311" type="curve" smooth="yes"/>
      <point x="280" y="282" type="line"/>
      <point x="132" y="257" type="line" smooth="yes"/>
      <point x="61" y="245"/>
      <point x="24" y="205"/>
      <point x="24" y="136" type="curve" smooth="yes"/>
      <point x="24" y="47"/>
      <point x="86" y="-9"/>
      <point x="184" y="-10" type="curve"/>
      <point x="222" y="5"/>
      <point x="255" y="31"/>
      <point x="285" y="63" type="curve"/>
      <point x="292" y="63" type="line"/>
      <point x="304" y="19"/>
      <point x="334" y="-5"/>
      <point x="373" y="-9" type="curve"/>
      <point x="408" y="-6"/>
      <point x="433" y="3"/>
      <point x="454" y="18" type="curve"/>
      <point x="468" y="101" type="line"/>
      <point x="458" y="110" type="line"/>
      <point x="448" y="107"/>
      <point x="441" y="106"/>
      <point x="435" y="106" type="curve" smooth="yes"/>
      <point x="421" y="106"/>
      <point x="416" y="113"/>
      <point x="416" y="132" type="curve" smooth="yes"/>
      <point x="416" y="161"/>
      <point x="425" y="308"/>
      <point x="425" y="341" type="curve" smooth="yes"/>
      <point x="425" y="429"/>
      <point x="361" y="478"/>
      <point x="250" y="478" type="curve" smooth="yes"/>
    </contour>
    <contour>
      <point x="278" y="136" type="line"/>
      <point x="256" y="114"/>
      <point x="233" y="102"/>
      <point x="210" y="102" type="curve" smooth="yes"/>
      <point x="181" y="102"/>
      <point x="164" y="120"/>
      <point x="164" y="152" type="curve" smooth="yes"/>
      <point x="164" y="176"/>
      <point x="174" y="187"/>
      <point x="194" y="191" type="curve" smooth="yes"/>
      <point x="279" y="208" type="line"/>
    </contour>
    <contour>
      <point x="461" y="10" type="move" name="ogonek"/>
    </contour>
    <contour>
      <point x="239" y="468" type="move" name="top"/>
    </contour>
  </outline>
</glyph>
<glyph name="k" format="1">
  <advance width="513"/>
  <unicode hex="006B"/>
  <outline>
    <contour>
      <point x="334" y="468" type="line"/>
      <point x="311" y="416" type="line"/>
      <point x="208" y="254" type="line"/>
      <point x="208" y="244" type="line"/>
      <point x="246" y="159"/>
      <point x="291" y="77"/>
      <point x="342" y="-3" type="curve"/>
      <point x="359" y="-11" type="line"/>
      <point x="409" y="-6"/>
      <point x="457" y="-1"/>
      <point x="506" y="10" type="curve"/>
      <point x="507" y="26" type="line"/>
      <point x="455" y="103"/>
      <point x="404" y="180"/>
      <point x="359" y="258" type="curve"/>
      <point x="498" y="468" type="line"/>
    </contour>
    <component base="l"/>
    <contour>
      <point x="272" y="0" type="move" name="bottom"/>
    </contour>
  </outline>
</glyph>
<glyph name="n" format="1">
  <advance width="533"/>
  <unicode hex="006E"/>
  <outline>
    <contour>
      <point x="284" y="459"/>
      <point x="246" y="435"/>
      <point x="210" y="401" type="curve"/>
      <point x="185" y="401" type="line"/>
      <point x="184" y="303" type="line"/>
      <point x="218" y="332"/>
      <point x="249" y="348"/>
      <point x="279" y="348" type="curve" smooth="yes"/>
      <point x="316" y="348"/>
      <point x="335" y="324"/>
      <point x="335" y="279" type="curve"/>
      <point x="326" y="0" type="line"/>
      <point x="485" y="0" type="line"/>
      <point x="479" y="207" type="line"/>
      <point x="482" y="341" type="line" smooth="yes"/>
      <point x="484" y="426"/>
      <point x="430" y="474"/>
      <point x="329" y="474" type="curve"/>
    </contour>
    <contour>
      <point x="53" y="458" type="line"/>
      <point x="59" y="191" type="line"/>
      <point x="51" y="0" type="line"/>
      <point x="209" y="0" type="line"/>
      <point x="202" y="207" type="line"/>
      <point x="203" y="470" type="line"/>
    </contour>
    <contour>
      <point x="272" y="0" type="move" name="bottom"/>
    </contour>
    <contour>
      <point x="284" y="468" type="move" name="top"/>
    </contour>
  </outline>
</glyph>
<glyph name="o" format="1">
  <advance width="495"/>
  <unicode hex="006F"/>
  <outline>
    <contour>
      <point x="104" y="478"/>
      <point x="23" y="389"/>
      <point x="23" y="223" type="curve" smooth="yes"/>
      <point x="23" y="71"/>
      <point x="98" y="-11"/>
      <point x="240" y="-11" type="curve" smooth="yes"/>
      <point x="391" y="-11"/>
      <point x="472" y="78"/>
      <point x="472" y="243" type="curve" smooth="yes"/>
      <point x="472" y="396"/>
      <point x="396" y="478"/>
      <point x="255" y="478" type="curve" smooth="yes"/>
    </contour>
    <contour>
      <point x="302" y="371"/>
      <point x="323" y="332"/>
      <point x="323" y="213" type="curve" smooth="yes"/>
      <point x="323" y="123"/>
      <point x="303" y="93"/>
      <point x="251" y="93" type="curve" smooth="yes"/>
      <point x="192" y="93"/>
      <point x="171" y="131"/>
      <point x="171" y="252" type="curve" smooth="yes"/>
      <point x="171" y="341"/>
      <point x="191" y="371"/>
      <point x="244" y="371" type="curve" smooth="yes"/>
    </contour>
    <contour>
      <point x="249" y="468" type="move" name="top"/>
    </contour>
  </outline>
</glyph>
<glyph name="p" format="1">
  <advance width="520"/>
  <unicode hex="0070"/>
  <outline>
    <contour>
      <point x="274" y="458"/>
      <point x="242" y="436"/>
      <point x="208" y="401" type="curve"/>
      <point x="187" y="401" type="line"/>
      <point x="187" y="306" type="line"/>
      <point x="217" y="336"/>
      <point x="242" y="348"/>
      <point x="268" y="348" type="curve" smooth="yes"/>
      <point x="323" y="348"/>
      <point x="348" y="304"/>
      <point x="348" y="223" type="curve" smooth="yes"/>
      <point x="349" y="126"/>
      <point x="314" y="90"/>
      <point x="257" y="90" type="curve" smooth="yes"/>
      <point x="208" y="90"/>
      <point x="140" y="121"/>
      <point x="80" y="180" type="curve"/>
      <point x="79" y="35" type="line"/>
      <point x="147" y="3"/>
      <point x="204" y="-11"/>
      <point x="261" y="-11" type="curve" smooth="yes"/>
      <point x="407" y="-11"/>
      <point x="497" y="79"/>
      <point x="497" y="246" type="curve" smooth="yes"/>
      <point x="497" y="388"/>
      <point x="432" y="474"/>
      <point x="314" y="474" type="curve"/>
    </contour>
    <contour>
      <point x="51" y="458" type="line"/>
      <point x="57" y="191" type="line"/>
      <point x="50" y="-185" type="line"/>
      <point x="207" y="-185" type="line"/>
      <point x="200" y="207" type="line"/>
      <point x="201" y="470" type="line"/>
    </contour>
    <contour>
      <point x="201" y="26" type="line"/>
      <point x="201" y="421" type="line"/>
    </contour>
  </outline>
</glyph>
<glyph name="r" format="1">
  <advance width="358"/>
  <unicode hex="0072"/>
  <outline>
    <contour>
      <point x="53" y="458" type="line"/>
      <point x="59" y="191" type="line"/>
      <point x="51" y="0" type="line"/>
      <point x="209" y="0" type="line"/>
      <point x="202" y="207" type="line"/>
      <point x="203" y="470" type="line"/>
    </contour>
    <contour>
      <point x="282" y="469"/>
      <point x="242" y="441"/>
      <point x="210" y="380" type="curve"/>
      <point x="187" y="380" type="line"/>
      <point x="187" y="244" type="line"/>
      <point x="221" y="300"/>
      <point x="263" y="324"/>
      <point x="301" y="324" type="curve" smooth="yes"/>
      <point x="313" y="324"/>
      <point x="326" y="323"/>
      <point x="338" y="317" type="curve"/>
      <point x="354" y="322" type="line"/>
      <point x="354" y="467" type="line"/>
      <point x="345" y="468"/>
      <point x="337" y="469"/>
      <point x="330" y="469" type="curve" smooth="yes"/>
    </contour>
    <contour>
      <point x="129" y="0" type="move" name="bottom"/>
    </contour>
    <contour>
      <point x="205" y="468" type="move" name="top"/>
    </contour>
  </outline>
</glyph>
<glyph name="t" format="1">
  <advance width="348"/>
  <unicode hex="0074"/>
  <outline>
    <contour>
      <point x="72" y="544" type="line"/>
      <point x="74" y="217" type="line"/>
      <point x="69" y="126" type="line"/>
      <point x="69" y="47"/>
      <point x="121" y="-1"/>
      <point x="218" y="-7" type="curve"/>
      <point x="254" y="-2"/>
      <point x="291" y="11"/>
      <point x="323" y="28" type="curve"/>
      <point x="337" y="119" type="line"/>
      <point x="326" y="131" type="line"/>
      <point x="303" y="121"/>
      <point x="281" y="116"/>
      <point x="262" y="116" type="curve" smooth="yes"/>
      <point x="229" y="116"/>
      <point x="215" y="129"/>
      <point x="216" y="168" type="curve"/>
      <point x="228" y="577" type="line"/>
      <point x="218" y="587" type="line"/>
    </contour>
    <contour>
      <point x="13" y="464" type="line"/>
      <point x="6" y="378" type="line"/>
      <point x="11" y="370" type="line"/>
      <point x="332" y="370" type="line"/>
      <point x="339" y="455" type="line"/>
      <point x="334" y="464" type="line"/>
    </contour>
    <contour>
      <point x="185" y="0" type="move" name="bottom"/>
    </contour>
    <contour>
      <point x="176" y="234" type="move" name="center"/>
    </contour>
  </outline>
</glyph>
<glyph name="u" format="1">
  <advance width="527"/>
  <unicode hex="0075"/>
  <outline>
    <contour>
      <point x="320" y="458" type="line"/>
      <point x="320" y="150" type="line"/>
      <point x="297" y="130"/>
      <point x="276" y="120"/>
      <point x="251" y="120" type="curve" smooth="yes"/>
      <point x="216" y="120"/>
      <point x="199" y="141"/>
      <point x="199" y="185" type="curve" smooth="yes"/>
      <point x="201" y="470" type="line"/>
      <point x="49" y="458" type="line"/>
      <point x="54" y="239" type="line"/>
      <point x="52" y="127" type="line" smooth="yes"/>
      <point x="51" y="42"/>
      <point x="106" y="-6"/>
      <point x="206" y="-6" type="curve"/>
      <point x="249" y="7"/>
      <point x="286" y="32"/>
      <point x="323" y="70" type="curve"/>
      <point x="334" y="70" type="line"/>
      <point x="348" y="22"/>
      <point x="377" y="-5"/>
      <point x="418" y="-9" type="curve"/>
      <point x="453" y="-6"/>
      <point x="478" y="3"/>
      <point x="499" y="18" type="curve"/>
      <point x="513" y="101" type="line"/>
      <point x="503" y="110" type="line"/>
      <point x="493" y="107"/>
      <point x="486" y="106"/>
      <point x="480" y="106" type="curve" smooth="yes"/>
      <point x="466" y="106"/>
      <point x="461" y="113"/>
      <point x="461" y="132" type="curve"/>
      <point x="470" y="470" type="line"/>
    </contour>
    <contour>
      <point x="479" y="10" type="move" name="ogonek"/>
    </contour>
    <contour>
      <point x="261" y="468" type="move" name="top"/>
    </contour>
  </outline>
</glyph>
<glyph name="w" format="1">
  <advance width="709"/>
  <unicode hex="0077"/>
  <outline>
    <contour>
      <point x="10" y="465" type="line"/>
      <point x="128" y="0" type="line"/>
      <point x="283" y="0" type="line"/>
      <point x="352" y="272" type="line"/>
      <point x="363" y="272" type="line"/>
      <point x="422" y="0" type="line"/>
      <point x="571" y="0" type="line"/>
      <point x="713" y="468" type="line"/>
      <point x="581" y="468" type="line"/>
      <point x="564" y="383" type="line"/>
      <point x="510" y="158" type="line"/>
      <point x="501" y="158" type="line"/>
      <point x="453" y="392" type="line"/>
      <point x="444" y="468" type="line"/>
      <point x="291" y="468" type="line"/>
      <point x="274" y="383" type="line"/>
      <point x="217" y="158" type="line"/>
      <point x="209" y="158" type="line"/>
      <point x="164" y="392" type="line"/>
      <point x="153" y="471" type="line"/>
    </contour>
    <contour>
      <point x="361" y="468" type="move" name="top"/>
    </contour>
  </outline>
</glyph>
<glyph name="section" format="1">
  <advance width="437"/>
  <unicode hex="00A7"/>
  <outline>
    <contour>
      <point x="104" y="419"/>
      <point x="23" y="336"/>
      <point x="23" y="247" type="curve" smooth="yes"/>
      <point x="23" y="99"/>
      <point x="245" y="95"/>
      <point x="245" y="35" type="curve" smooth="yes"/>
      <point x="245" y="19"/>
      <point x="230" y="2"/>
      <point x="196" y="2" type="curve" smooth="yes"/>
      <point x="156" y="2"/>
      <point x="101" y="24"/>
      <point x="54" y="62" type="curve"/>
      <point x="41" y="53" type="line"/>
      <point x="21" y="-68" type="line"/>
      <point x="69" y="-86"/>
      <point x="136" y="-97"/>
      <point x="180" y="-97" type="curve" smooth="yes"/>
      <point x="297" y="-97"/>
      <point x="380" y="-24"/>
      <point x="380" y="62" type="curve" smooth="yes"/>
      <point x="380" y="204"/>
      <point x="157" y="201"/>
      <point x="157" y="287" type="curve" smooth="yes"/>
      <point x="157" y="319"/>
      <point x="185" y="348"/>
      <point x="242" y="364" type="curve"/>
      <point x="216" y="425" type="line"/>
    </contour>
    <contour>
      <point x="148" y="655"/>
      <point x="64" y="581"/>
      <point x="64" y="493" type="curve" smooth="yes"/>
      <point x="64" y="351"/>
      <point x="286" y="356"/>
      <point x="286" y="268" type="curve" smooth="yes"/>
      <point x="286" y="238"/>
      <point x="260" y="209"/>
      <point x="197" y="193" type="curve"/>
      <point x="229" y="134" type="line"/>
      <point x="342" y="141"/>
      <point x="420" y="222"/>
      <point x="420" y="309" type="curve" smooth="yes"/>
      <point x="420" y="456"/>
      <point x="197" y="460"/>
      <point x="197" y="519" type="curve" smooth="yes"/>
      <point x="197" y="536"/>
      <point x="214" y="553"/>
      <point x="243" y="553" type="curve" smooth="yes"/>
      <point x="271" y="553"/>
      <point x="315" y="538"/>
      <point x="359" y="509" type="curve"/>
      <point x="378" y="515" type="line"/>
      <point x="397" y="631" type="line"/>
      <point x="358" y="646"/>
      <point x="304" y="655"/>
      <point x="264" y="655" type="curve" smooth="yes"/>
    </contour>
  </outline>
</glyph>
<glyph name="macron" format="1">
  <advance width="388"/>
  <unicode hex="00AF"/>
  <outline>
    <contour>
      <point x="55" y="673" type="line"/>
      <point x="47" y="585" type="line"/>
      <point x="57" y="574" type="line"/>
      <point x="335" y="574" type="line"/>
      <point x="343" y="662" type="line"/>
      <point x="333" y="673" type="line"/>
    </contour>
    <contour>
      <point x="195" y="468" type="move" name="_top"/>
    </contour>
  </outline>
</glyph>
<glyph name="paragraph" format="1">
  <advance width="539"/>
  <unicode hex="00B6"/>
  <outline>
    <contour>
      <point x="275" y="645" type="line" smooth="yes"/>
      <point x="111" y="645"/>
      <point x="19" y="566"/>
      <point x="19" y="426" type="curve" smooth="yes"/>
      <point x="19" y="312"/>
      <point x="87" y="233"/>
      <point x="208" y="203" type="curve"/>
      <point x="263" y="283" type="line"/>
      <point x="215" y="317"/>
      <point x="189" y="366"/>
      <point x="189" y="421" type="curve" smooth="yes"/>
      <point x="189" y="478"/>
      <point x="211" y="515"/>
      <point x="252" y="525" type="curve"/>
      <point x="291" y="525" type="line"/>
      <point x="297" y="186" type="line"/>
      <point x="297" y="133" type="line" smooth="yes"/>
      <point x="297" y="72"/>
      <point x="269" y="35"/>
      <point x="197" y="-3" type="curve"/>
      <point x="197" y="-17" type="line"/>
      <point x="238" y="-89" type="line"/>
      <point x="396" y="-32"/>
      <point x="447" y="33"/>
      <point x="447" y="139" type="curve"/>
      <point x="445" y="203" type="line"/>
      <point x="451" y="524" type="line"/>
      <point x="515" y="524" type="line"/>
      <point x="525" y="634" type="line"/>
      <point x="516" y="645" type="line"/>
    </contour>
  </outline>
</glyph>
<glyph name="multiply" format="1">
  <advance width="480"/>
  <unicode hex="00D7"/>
  <outline>
    <contour>
      <point x="240" y="334" type="line"/>
      <point x="127" y="446" type="line"/>
      <point x="54" y="384" type="line"/>
      <point x="54" y="369" type="line"/>
      <point x="165" y="258" type="line"/>
      <point x="54" y="146" type="line"/>
      <point x="54" y="132" type="line"/>
      <point x="127" y="69" type="line"/>
      <point x="240" y="183" type="line"/>
      <point x="353" y="70" type="line"/>
      <point x="426" y="132" type="line"/>
      <point x="426" y="147" type="line"/>
      <point x="316" y="258" type="line"/>
      <point x="427" y="369" type="line"/>
      <point x="426" y="384" type="line"/>
      <point x="353" y="446" type="line"/>
    </contour>
  </outline>
</glyph>
<glyph name="Oslash" format="1">
  <advance width="647"/>
  <unicode hex="00D8"/>
  <outline>
    <contour>
      <point x="161" y="117" type="line"/>
      <point x="68" y="-76" type="line"/>
      <point x="75" y="-90" type="line"/>
      <point x="176" y="-127" type="line"/>
      <point x="272" y="72" type="line"/>
    </contour>
    <contour>
      <point x="496" y="533" type="line"/>
      <point x="581" y="708" type="line"/>
      <point x="572" y="724" type="line"/>
      <point x="474" y="761" type="line"/>
      <point x="392" y="594" type="line"/>
    </contour>
    <component base="O"/>
    <contour>
      <point x="324" y="647" type="move" name="top"/>
    </contour>
  </outline>
</glyph>
<glyph name="germandbls" format="1">
  <advance width="629"/>
  <unicode hex="00DF"/>
  <outline>
    <contour>
      <point x="194" y="704"/>
      <point x="92" y="625"/>
      <point x="92" y="482" type="curve" smooth="yes"/>
      <point x="96" y="190" type="line"/>
      <point x="88" y="0" type="line"/>
      <point x="246" y="0" type="line"/>
      <point x="239" y="206" type="line"/>
      <point x="244" y="502" type="line" smooth="yes"/>
      <point x="245" y="569"/>
      <point x="280" y="593"/>
      <point x="331" y="593" type="curve" smooth="yes"/>
      <point x="378" y="593"/>
      <point x="404" y="573"/>
      <point x="404" y="532" type="curve" smooth="yes"/>
      <point x="404" y="455"/>
      <point x="311" y="453"/>
      <point x="311" y="347" type="curve" smooth="yes"/>
      <point x="311" y="196"/>
      <point x="496" y="186"/>
      <point x="496" y="121" type="curve" smooth="yes"/>
      <point x="496" y="101"/>
      <point x="480" y="88"/>
      <point x="452" y="88" type="curve" smooth="yes"/>
      <point x="417" y="88"/>
      <point x="364" y="109"/>
      <point x="321" y="147" type="curve"/>
      <point x="307" y="137" type="line"/>
      <point x="288" y="17" type="line"/>
      <point x="341" y="-2"/>
      <point x="394" y="-11"/>
      <point x="437" y="-11" type="curve" smooth="yes"/>
      <point x="571" y="-11"/>
      <point x="630" y="67"/>
      <point x="630" y="149" type="curve" smooth="yes"/>
      <point x="630" y="294"/>
      <point x="445" y="290"/>
      <point x="445" y="376" type="curve" smooth="yes"/>
      <point x="445" y="436"/>
      <point x="536" y="459"/>
      <point x="536" y="557" type="curve" smooth="yes"/>
      <point x="536" y="638"/>
      <point x="475" y="704"/>
      <point x="341" y="704" type="curve" smooth="yes"/>
    </contour>
    <contour>
      <point x="28" y="464" type="line"/>
      <point x="21" y="378" type="line"/>
      <point x="26" y="370" type="line"/>
      <point x="166" y="370" type="line"/>
      <point x="173" y="455" type="line"/>
      <point x="169" y="464" type="line"/>
    </contour>
  </outline>
</glyph>
<glyph name="ae" format="1">
  <advance width="701"/>
  <unicode hex="00E6"/>
  <outline>
    <contour>
      <point x="339" y="204" type="line"/>
      <point x="661" y="234" type="line"/>
      <point x="675" y="252" type="line"/>
      <point x="635" y="310" type="line"/>
      <point x="339" y="275" type="line"/>
    </contour>
    <contour>
      <point x="339" y="275" type="line"/>
      <point x="131" y="256" type="line" smooth="yes"/>
      <point x="58" y="250"/>
      <point x="23" y="197"/>
      <point x="23" y="133" type="curve" smooth="yes"/>
      <point x="23" y="41"/>
      <point x="96" y="-9"/>
      <point x="202" y="-10" type="curve"/>
      <point x="249" y="9"/>
      <point x="289" y="37"/>
      <point x="322" y="70" type="curve"/>
      <point x="360" y="15"/>
      <point x="423" y="-11"/>
      <point x="500" y="-11" type="curve" smooth="yes"/>
      <point x="542" y="-11"/>
      <point x="594" y="-1"/>
      <point x="635" y="15" type="curve"/>
      <point x="658" y="128" type="line"/>
      <point x="646" y="136" type="line"/>
      <point x="599" y="115"/>
      <point x="551" y="105"/>
      <point x="514" y="105" type="curve" smooth="yes"/>
      <point x="432" y="105"/>
      <point x="402" y="147"/>
      <point x="402" y="244" type="curve"/>
      <point x="402" y="282" type="line"/>
      <point x="402" y="335"/>
      <point x="437" y="373"/>
      <point x="481" y="374" type="curve" smooth="yes"/>
      <point x="522" y="375"/>
      <point x="542" y="350"/>
      <point x="537" y="294" type="curve"/>
      <point x="676" y="252" type="line"/>
      <point x="687" y="396"/>
      <point x="615" y="477"/>
      <point x="495" y="477" type="curve" smooth="yes"/>
      <point x="444" y="477"/>
      <point x="397" y="462"/>
      <point x="362" y="432" type="curve"/>
      <point x="337" y="461"/>
      <point x="297" y="478"/>
      <point x="239" y="478" type="curve" smooth="yes"/>
      <point x="175" y="478"/>
      <point x="106" y="459"/>
      <point x="48" y="425" type="curve"/>
      <point x="66" y="321" type="line"/>
      <point x="77" y="315" type="line"/>
      <point x="137" y="352"/>
      <point x="181" y="369"/>
      <point x="219" y="369" type="curve" smooth="yes"/>
      <point x="259" y="369"/>
      <point x="275" y="351"/>
      <point x="275" y="311" type="curve" smooth="yes"/>
      <point x="275" y="235" type="line" smooth="yes"/>
      <point x="275" y="200"/>
      <point x="279" y="172"/>
      <point x="285" y="141" type="curve"/>
      <point x="251" y="112"/>
      <point x="231" y="103"/>
      <point x="211" y="103" type="curve" smooth="yes"/>
      <point x="182" y="103"/>
      <point x="165" y="120"/>
      <point x="165" y="148" type="curve" smooth="yes"/>
      <point x="165" y="170"/>
      <point x="174" y="182"/>
      <point x="199" y="186" type="curve" smooth="yes"/>
      <point x="339" y="204" type="line"/>
    </contour>
    <contour>
      <point x="353" y="468" type="move" name="top"/>
    </contour>
  </outline>
</glyph>
<glyph name="eth" format="1">
  <advance width="501"/>
  <unicode hex="00F0"/>
  <outline>
    <contour>
      <point x="145" y="710" type="line"/>
      <point x="44" y="636" type="line"/>
      <point x="44" y="618" type="line"/>
      <point x="263" y="518"/>
      <point x="327" y="434"/>
      <point x="327" y="232" type="curve" smooth="yes"/>
      <point x="327" y="126"/>
      <point x="308" y="91"/>
      <point x="253" y="91" type="curve" smooth="yes"/>
      <point x="198" y="91"/>
      <point x="172" y="124"/>
      <point x="172" y="225" type="curve" smooth="yes"/>
      <point x="172" y="320"/>
      <point x="196" y="351"/>
      <point x="253" y="351" type="curve" smooth="yes"/>
      <point x="287" y="351"/>
      <point x="312" y="341"/>
      <point x="338" y="314" type="curve"/>
      <point x="409" y="394" type="line"/>
      <point x="358" y="440"/>
      <point x="311" y="459"/>
      <point x="244" y="459" type="curve" smooth="yes"/>
      <point x="103" y="459"/>
      <point x="28" y="375"/>
      <point x="28" y="223" type="curve" smooth="yes"/>
      <point x="28" y="68"/>
      <point x="107" y="-11"/>
      <point x="242" y="-11" type="curve" smooth="yes"/>
      <point x="389" y="-11"/>
      <point x="471" y="82"/>
      <point x="471" y="249" type="curve" smooth="yes"/>
      <point x="471" y="437"/>
      <point x="368" y="599"/>
      <point x="155" y="710" type="curve"/>
    </contour>
    <contour>
      <point x="45" y="523" type="line"/>
      <point x="77" y="463" type="line"/>
      <point x="90" y="458" type="line"/>
      <point x="403" y="648" type="line" smooth="yes"/>
      <point x="372" y="708" type="line"/>
      <point x="359" y="712" type="line"/>
    </contour>
  </outline>
</glyph>
<glyph name="dcroat" format="1">
  <advance width="536"/>
  <unicode hex="0111"/>
  <outline>
    <contour>
      <point x="207" y="619" type="line"/>
      <point x="201" y="545" type="line"/>
      <point x="211" y="535" type="line"/>
      <point x="536" y="535" type="line"/>
      <point x="543" y="608" type="line"/>
      <point x="532" y="619" type="line"/>
    </contour>
    <component base="d"/>
  </outline>
</glyph>
<glyph name="Hbar" format="1">
  <advance width="735"/>
  <unicode hex="0126"/>
  <outline>
    <contour>
      <point x="25" y="561" type="line"/>
      <point x="20" y="482" type="line"/>
      <point x="27" y="474" type="line"/>
      <point x="711" y="474" type="line"/>
      <point x="716" y="552" type="line"/>
      <point x="709" y="561" type="line"/>
    </contour>
    <component base="H" xOffset="13.333"/>
  </outline>
</glyph>
<glyph name="iogonek" format="1">
  <advance width="261"/>
  <unicode hex="012F"/>
  <outline>
    <contour>
      <point x="51" y="0" type="line"/>
      <point x="21" y="-45"/>
      <point x="12" y="-74"/>
      <point x="12" y="-105" type="curve" smooth="yes"/>
      <point x="12" y="-158"/>
      <point x="48" y="-197"/>
      <point x="107" y="-197" type="curve" smooth="yes"/>
      <point x="140" y="-197"/>
      <point x="173" y="-184"/>
      <point x="208" y="-155" type="curve"/>
      <point x="197" y="-89" type="line"/>
      <point x="188" y="-89" type="line"/>
      <point x="170" y="-105"/>
      <point x="146" y="-113"/>
      <point x="129" y="-113" type="curve" smooth="yes"/>
      <point x="106" y="-113"/>
      <point x="95" y="-100"/>
      <point x="95" y="-80" type="curve" smooth="yes"/>
      <point x="95" y="-61"/>
      <point x="104" y="-36"/>
      <point x="134" y="8" type="curve"/>
    </contour>
    <component base="dotlessi"/>
    <component base="dotaccent" xOffset="2"/>
  </outline>
</glyph>
<glyph name="kgreenlandic" format="1">
  <advance width="511"/>
  <unicode hex="0138"/>
  <outline>
    <contour>
      <point x="331" y="468" type="line"/>
      <point x="308" y="416" type="line"/>
      <point x="205" y="254" type="line"/>
      <point x="205" y="244" type="line"/>
      <point x="243" y="159"/>
      <point x="288" y="77"/>
      <point x="339" y="-3" type="curve"/>
      <point x="356" y="-11" type="line"/>
      <point x="406" y="-6"/>
      <point x="454" y="-1"/>
      <point x="503" y="10" type="curve"/>
      <point x="504" y="26" type="line"/>
      <point x="452" y="103"/>
      <point x="401" y="180"/>
      <point x="356" y="258" type="curve"/>
      <point x="495" y="468" type="line"/>
    </contour>
    <component base="dotlessi"/>
    <contour>
      <point x="272" y="0" type="move" name="bottom"/>
    </contour>
  </outline>
</glyph>
<glyph name="lslash" format="1">
  <advance width="302"/>
  <unicode hex="0142"/>
  <outline>
    <contour>
      <point x="165" y="415" type="line"/>
      <point x="161" y="429" type="line"/>
      <point x="-17" y="339" type="line"/>
      <point x="14" y="251" type="line"/>
      <point x="22" y="249" type="line"/>
      <point x="168" y="322" type="line"/>
      <point x="172" y="308" type="line"/>
      <point x="319" y="383" type="line"/>
      <point x="288" y="471" type="line"/>
      <point x="281" y="474" type="line"/>
    </contour>
    <component base="l" xOffset="16"/>
  </outline>
</glyph>
<glyph name="eng" format="1">
  <advance width="536"/>
  <unicode hex="014B"/>
  <outline>
    <contour>
      <point x="284" y="459"/>
      <point x="246" y="435"/>
      <point x="210" y="401" type="curve"/>
      <point x="185" y="401" type="line"/>
      <point x="184" y="303" type="line"/>
      <point x="218" y="332"/>
      <point x="249" y="348"/>
      <point x="279" y="348" type="curve" smooth="yes"/>
      <point x="316" y="348"/>
      <point x="335" y="324"/>
      <point x="335" y="279" type="curve" smooth="yes"/>
      <point x="335" y="26" type="line" smooth="yes"/>
      <point x="335" y="-41"/>
      <point x="313" y="-82"/>
      <point x="260" y="-112" type="curve"/>
      <point x="260" y="-126" type="line"/>
      <point x="314" y="-196" type="line"/>
      <point x="434" y="-144"/>
      <point x="485" y="-76"/>
      <point x="485" y="30" type="curve"/>
      <point x="479" y="207" type="line"/>
      <point x="482" y="341" type="line" smooth="yes"/>
      <point x="484" y="426"/>
      <point x="430" y="474"/>
      <point x="329" y="474" type="curve"/>
    </contour>
    <contour>
      <point x="53" y="458" type="line"/>
      <point x="59" y="191" type="line"/>
      <point x="51" y="0" type="line"/>
      <point x="209" y="0" type="line"/>
      <point x="202" y="207" type="line"/>
      <point x="203" y="470" type="line"/>
    </contour>
  </outline>
</glyph>
<glyph name="oe" format="1">
  <advance width="767"/>
  <unicode hex="0153"/>
  <outline>
    <contour>
      <point x="103" y="477"/>
      <point x="21" y="390"/>
      <point x="21" y="227" type="curve" smooth="yes"/>
      <point x="21" y="71"/>
      <point x="96" y="-11"/>
      <point x="233" y="-11" type="curve" smooth="yes"/>
      <point x="368" y="-11"/>
      <point x="438" y="77"/>
      <point x="438" y="241" type="curve" smooth="yes"/>
      <point x="438" y="399"/>
      <point x="372" y="477"/>
      <point x="246" y="477" type="curve" smooth="yes"/>
    </contour>
    <contour>
      <point x="302" y="371"/>
      <point x="323" y="332"/>
      <point x="323" y="213" type="curve" smooth="yes"/>
      <point x="323" y="123"/>
      <point x="303" y="93"/>
      <point x="251" y="93" type="curve" smooth="yes"/>
      <point x="192" y="93"/>
      <point x="171" y="131"/>
      <point x="171" y="252" type="curve" smooth="yes"/>
      <point x="171" y="341"/>
      <point x="191" y="371"/>
      <point x="244" y="371" type="curve" smooth="yes"/>
    </contour>
    <contour>
      <point x="417" y="477"/>
      <point x="335" y="386"/>
      <point x="335" y="233" type="curve" smooth="yes"/>
      <point x="335" y="80"/>
      <point x="416" y="-11"/>
      <point x="556" y="-11" type="curve" smooth="yes"/>
      <point x="606" y="-11"/>
      <point x="654" y="-1"/>
      <point x="697" y="15" type="curve"/>
      <point x="720" y="127" type="line"/>
      <point x="707" y="136" type="line"/>
      <point x="659" y="115"/>
      <point x="612" y="105"/>
      <point x="573" y="105" type="curve" smooth="yes"/>
      <point x="485" y="105"/>
      <point x="452" y="149"/>
      <point x="452" y="240" type="curve" smooth="yes"/>
      <point x="452" y="327"/>
      <point x="485" y="375"/>
      <point x="543" y="375" type="curve" smooth="yes"/>
      <point x="582" y="375"/>
      <point x="603" y="352"/>
      <point x="603" y="306" type="curve"/>
      <point x="601" y="292" type="line"/>
      <point x="435" y="285" type="line"/>
      <point x="435" y="207" type="line"/>
      <point x="714" y="208" type="line"/>
      <point x="734" y="230" type="line"/>
      <point x="737" y="244"/>
      <point x="739" y="269"/>
      <point x="739" y="289" type="curve" smooth="yes"/>
      <point x="739" y="406"/>
      <point x="671" y="477"/>
      <point x="547" y="477" type="curve" smooth="yes"/>
    </contour>
    <contour>
      <point x="486" y="468" type="move" name="top"/>
    </contour>
  </outline>
</glyph>
<glyph name="Ohorn" format="1">
  <advance width="654"/>
  <unicode hex="01A0"/>
  <outline>
    <contour>
      <point x="575" y="781"/>
      <point x="546" y="766"/>
      <point x="525" y="751" type="curve"/>
      <point x="522" y="739" type="line"/>
      <point x="541" y="722"/>
      <point x="552" y="698"/>
      <point x="552" y="675" type="curve" smooth="yes"/>
      <point x="552" y="644"/>
      <point x="532" y="625"/>
      <point x="498" y="625" type="curve" smooth="yes"/>
      <point x="456" y="625"/>
      <point x="410" y="655"/>
      <point x="322" y="655" type="curve" smooth="yes"/>
      <point x="143" y="655"/>
      <point x="24" y="532"/>
      <point x="24" y="312" type="curve" smooth="yes"/>
      <point x="24" y="108"/>
      <point x="127" y="-11"/>
      <point x="314" y="-11" type="curve" smooth="yes"/>
      <point x="511" y="-11"/>
      <point x="624" y="119"/>
      <point x="624" y="334" type="curve" smooth="yes"/>
      <point x="624" y="427"/>
      <point x="602" y="500"/>
      <point x="559" y="555" type="curve"/>
      <point x="625" y="567"/>
      <point x="676" y="614"/>
      <point x="676" y="684" type="curve" smooth="yes"/>
      <point x="676" y="740"/>
      <point x="642" y="781"/>
      <point x="601" y="781" type="curve" smooth="yes"/>
    </contour>
    <contour>
      <point x="418" y="525"/>
      <point x="454" y="470"/>
      <point x="454" y="311" type="curve" smooth="yes"/>
      <point x="454" y="161"/>
      <point x="419" y="112"/>
      <point x="327" y="112" type="curve" smooth="yes"/>
      <point x="229" y="112"/>
      <point x="193" y="168"/>
      <point x="193" y="327" type="curve" smooth="yes"/>
      <point x="193" y="475"/>
      <point x="227" y="525"/>
      <point x="320" y="525" type="curve" smooth="yes"/>
    </contour>
    <contour>
      <point x="324" y="645" type="move" name="top"/>
    </contour>
  </outline>
</glyph>
<glyph name="ohorn" format="1">
  <advance width="497"/>
  <unicode hex="01A1"/>
  <outline>
    <contour>
      <point x="453" y="604"/>
      <point x="426" y="591"/>
      <point x="400" y="569" type="curve"/>
      <point x="397" y="556" type="line"/>
      <point x="416" y="539"/>
      <point x="428" y="521"/>
      <point x="428" y="498" type="curve" smooth="yes"/>
      <point x="428" y="472"/>
      <point x="413" y="455"/>
      <point x="385" y="455" type="curve" smooth="yes"/>
      <point x="354" y="455"/>
      <point x="317" y="478"/>
      <point x="256" y="478" type="curve"/>
      <point x="103" y="478"/>
      <point x="23" y="390"/>
      <point x="23" y="227" type="curve" smooth="yes"/>
      <point x="23" y="69"/>
      <point x="97" y="-11"/>
      <point x="241" y="-11" type="curve" smooth="yes"/>
      <point x="391" y="-11"/>
      <point x="472" y="77"/>
      <point x="472" y="242" type="curve"/>
      <point x="472" y="301"/>
      <point x="460" y="351"/>
      <point x="435" y="389" type="curve"/>
      <point x="493" y="390"/>
      <point x="551" y="451"/>
      <point x="551" y="519" type="curve" smooth="yes"/>
      <point x="551" y="570"/>
      <point x="516" y="604"/>
      <point x="478" y="604" type="curve" smooth="yes"/>
    </contour>
    <contour>
      <point x="302" y="371"/>
      <point x="323" y="334"/>
      <point x="323" y="216" type="curve" smooth="yes"/>
      <point x="323" y="124"/>
      <point x="303" y="93"/>
      <point x="251" y="93" type="curve" smooth="yes"/>
      <point x="192" y="93"/>
      <point x="171" y="130"/>
      <point x="171" y="249" type="curve" smooth="yes"/>
      <point x="171" y="340"/>
      <point x="191" y="371"/>
      <point x="244" y="371" type="curve" smooth="yes"/>
    </contour>
    <contour>
      <point x="247" y="468" type="move" name="top"/>
    </contour>
  </outline>
</glyph>
<glyph name="caron" format="1">
  <advance width="388"/>
  <unicode hex="02C7"/>
  <outline>
    <contour>
      <point x="304" y="729" type="line"/>
      <point x="262" y="698"/>
      <point x="223" y="669"/>
      <point x="193" y="643" type="curve"/>
      <point x="164" y="669"/>
      <point x="124" y="698"/>
      <point x="82" y="729" type="curve"/>
      <point x="67" y="729" type="line"/>
      <point x="28" y="670" type="line"/>
      <point x="80" y="623"/>
      <point x="133" y="572"/>
      <point x="178" y="525" type="curve"/>
      <point x="208" y="525" type="line"/>
      <point x="260" y="578"/>
      <point x="313" y="629"/>
      <point x="358" y="670" type="curve"/>
      <point x="319" y="729" type="line"/>
    </contour>
    <contour>
      <point x="193" y="468" type="move" name="_top"/>
    </contour>
  </outline>
</glyph>
<glyph name="dotaccent" format="1">
  <advance width="261"/>
  <unicode hex="02D9"/>
  <outline>
    <component base="period" xOffset="17" yOffset="550"/>
    <contour>
      <point x="131" y="468" type="move" name="_top"/>
    </contour>
  </outline>
</glyph>
<glyph name="Omega" format="1">
  <advance width="758"/>
  <unicode hex="03A9"/>
  <outline>
    <contour>
      <point x="186" y="655"/>
      <point x="78" y="535"/>
      <point x="78" y="371" type="curve" smooth="yes"/>
      <point x="78" y="287"/>
      <point x="107" y="206"/>
      <point x="180" y="125" type="curve"/>
      <point x="178" y="121" type="line"/>
      <point x="132" y="120" type="line"/>
      <point x="37" y="128" type="line"/>
      <point x="19" y="5" type="line"/>
      <point x="28" y="-5" type="line"/>
      <point x="131" y="0" type="line"/>
      <point x="304" y="0" type="line"/>
      <point x="341" y="-3" type="line"/>
      <point x="348" y="3" type="line"/>
      <point x="348" y="98" type="line"/>
      <point x="281" y="170"/>
      <point x="247" y="253"/>
      <point x="247" y="357" type="curve" smooth="yes"/>
      <point x="247" y="467"/>
      <point x="284" y="525"/>
      <point x="376" y="525" type="curve" smooth="yes"/>
      <point x="471" y="525"/>
      <point x="510" y="464"/>
      <point x="510" y="350" type="curve" smooth="yes"/>
      <point x="510" y="249"/>
      <point x="479" y="168"/>
      <point x="409" y="98" type="curve"/>
      <point x="409" y="3" type="line"/>
      <point x="416" y="-3" type="line"/>
      <point x="453" y="0" type="line"/>
      <point x="599" y="0" type="line"/>
      <point x="722" y="-7" type="line"/>
      <point x="740" y="120" type="line"/>
      <point x="731" y="130" type="line"/>
      <point x="646" y="121" type="line"/>
      <point x="579" y="121" type="line"/>
      <point x="577" y="125" type="line"/>
      <point x="648" y="206"/>
      <point x="680" y="293"/>
      <point x="680" y="382" type="curve" smooth="yes"/>
      <point x="680" y="542"/>
      <point x="580" y="655"/>
      <point x="386" y="655" type="curve" smooth="yes"/>
    </contour>
    <contour>
      <point x="20" y="645" type="move" name="topleft"/>
    </contour>
  </outline>
</glyph>
<glyph name="ohorngrave" format="1">
  <advance width="497"/>
  <unicode hex="1EDD"/>
  <outline>
    <contour>
      <point x="144" y="736" type="line"/>
      <point x="88" y="649" type="line"/>
      <point x="91" y="635" type="line"/>
      <point x="165" y="592"/>
      <point x="229" y="556"/>
      <point x="297" y="520" type="curve"/>
      <point x="311" y="521" type="line"/>
      <point x="348" y="581" type="line"/>
      <point x="279" y="633"/>
      <point x="220" y="682"/>
      <point x="159" y="737" type="curve"/>
    </contour>
    <component base="ohorn"/>
  </outline>
</glyph>
<glyph name="estimated" format="1">
  <advance width="787"/>
  <unicode hex="212E"/>
  <outline>
    <contour>
      <point x="202" y="650"/>
      <point x="36" y="503"/>
      <point x="36" y="319" type="curve" smooth="yes"/>
      <point x="36" y="136"/>
      <point x="202" y="-11"/>
      <point x="404" y="-11" type="curve" smooth="yes"/>
      <point x="522" y="-11"/>
      <point x="628" y="39"/>
      <point x="695" y="116" type="curve" smooth="yes"/>
      <point x="646" y="116" type="line" smooth="yes"/>
      <point x="588" y="51"/>
      <point x="502" y="9"/>
      <point x="405" y="9" type="curve" smooth="yes"/>
      <point x="316" y="9"/>
      <point x="235" y="46"/>
      <point x="179" y="105" type="curve" smooth="yes"/>
      <point x="174" y="111"/>
      <point x="170" y="118"/>
      <point x="170" y="126" type="curve" smooth="yes"/>
      <point x="170" y="307" type="line" smooth="yes"/>
      <point x="170" y="310"/>
      <point x="172" y="312"/>
      <point x="175" y="312" type="curve" smooth="yes"/>
      <point x="772" y="312" type="line"/>
      <point x="772" y="319" type="line" smooth="yes"/>
      <point x="772" y="503"/>
      <point x="607" y="650"/>
      <point x="404" y="650" type="curve" smooth="yes"/>
    </contour>
    <contour>
      <point x="493" y="630"/>
      <point x="572" y="595"/>
      <point x="629" y="538" type="curve" smooth="yes"/>
      <point x="635" y="532"/>
      <point x="639" y="525"/>
      <point x="639" y="516" type="curve" smooth="yes"/>
      <point x="639" y="336" type="line" smooth="yes"/>
      <point x="639" y="332"/>
      <point x="637" y="330"/>
      <point x="634" y="330" type="curve" smooth="yes"/>
      <point x="176" y="330" type="line" smooth="yes"/>
      <point x="172" y="330"/>
      <point x="170" y="332"/>
      <point x="170" y="336" type="curve" smooth="yes"/>
      <point x="170" y="512" type="line" smooth="yes"/>
      <point x="170" y="521"/>
      <point x="174" y="529"/>
      <point x="180" y="535" type="curve" smooth="yes"/>
      <point x="237" y="594"/>
      <point x="316" y="630"/>
      <point x="406" y="630" type="curve" smooth="yes"/>
    </contour>
  </outline>
</glyph>
<glyph name="partialdiff" format="1">
  <advance width="523"/>
  <unicode hex="2202"/>
  <outline>
    <contour>
      <point x="160" y="719" type="line"/>
      <point x="47" y="639" type="line"/>
      <point x="47" y="626" type="line"/>
      <point x="255" y="556"/>
      <point x="353" y="450"/>
      <point x="353" y="258" type="curve" smooth="yes"/>
      <point x="353" y="150"/>
      <point x="323" y="99"/>
      <point x="260" y="99" type="curve" smooth="yes"/>
      <point x="202" y="99"/>
      <point x="172" y="141"/>
      <point x="172" y="214" type="curve" smooth="yes"/>
      <point x="172" y="288"/>
      <point x="203" y="323"/>
      <point x="264" y="323" type="curve" smooth="yes"/>
      <point x="298" y="323"/>
      <point x="330" y="309"/>
      <point x="366" y="284" type="curve"/>
      <point x="343" y="446" type="line"/>
      <point x="309" y="416" type="line"/>
      <point x="281" y="431"/>
      <point x="253" y="439"/>
      <point x="224" y="440" type="curve" smooth="yes"/>
      <point x="94" y="440"/>
      <point x="23" y="333"/>
      <point x="23" y="215" type="curve" smooth="yes"/>
      <point x="23" y="94"/>
      <point x="97" y="-11"/>
      <point x="255" y="-11" type="curve" smooth="yes"/>
      <point x="415" y="-11"/>
      <point x="505" y="98"/>
      <point x="505" y="268" type="curve" smooth="yes"/>
      <point x="505" y="470"/>
      <point x="382" y="620"/>
      <point x="170" y="719" type="curve"/>
    </contour>
  </outline>
</glyph>
<glyph name="summation" format="1">
  <advance width="528"/>
  <unicode hex="2211"/>
  <outline>
    <contour>
      <point x="370" y="645" type="line"/>
      <point x="121" y="645" type="line"/>
      <point x="30" y="646" type="line"/>
      <point x="30" y="525" type="line"/>
      <point x="224" y="323" type="line"/>
      <point x="29" y="110" type="line"/>
      <point x="29" y="-2" type="line"/>
      <point x="127" y="0" type="line"/>
      <point x="342" y="0" type="line"/>
      <point x="498" y="-2" type="line"/>
      <point x="509" y="116" type="line"/>
      <point x="498" y="128" type="line"/>
      <point x="377" y="120" type="line"/>
      <point x="224" y="120" type="line"/>
      <point x="401" y="312" type="line"/>
      <point x="401" y="336" type="line"/>
      <point x="224" y="524" type="line"/>
      <point x="385" y="524" type="line"/>
      <point x="491" y="518" type="line"/>
      <point x="501" y="635" type="line"/>
      <point x="491" y="647" type="line"/>
    </contour>
  </outline>
</glyph>
<glyph name="integral" format="1">
  <advance width="305"/>
  <unicode hex="222B"/>
  <outline>
    <contour>
      <point x="154" y="711"/>
      <point x="75" y="645"/>
      <point x="75" y="525" type="curve"/>
      <point x="81" y="51" type="line" smooth="yes"/>
      <point x="82" y="-11"/>
      <point x="60" y="-44"/>
      <point x="15" y="-76" type="curve"/>
      <point x="15" y="-89" type="line"/>
      <point x="83" y="-156" type="line"/>
      <point x="188" y="-102"/>
      <point x="224" y="-43"/>
      <point x="224" y="55" type="curve" smooth="yes"/>
      <point x="221" y="551" type="line"/>
      <point x="222" y="588"/>
      <point x="239" y="603"/>
      <point x="270" y="603" type="curve" smooth="yes"/>
      <point x="288" y="603"/>
      <point x="316" y="598"/>
      <point x="352" y="583" type="curve"/>
      <point x="363" y="590" type="line"/>
      <point x="372" y="702" type="line"/>
      <point x="343" y="708"/>
      <point x="316" y="711"/>
      <point x="288" y="711" type="curve" smooth="yes"/>
    </contour>
  </outline>
</glyph>
<glyph name="fi" format="1">
  <advance width="617"/>
  <unicode hex="FB01"/>
  <outline>
    <contour>
      <point x="171" y="705"/>
      <point x="95" y="637"/>
      <point x="95" y="490" type="curve" smooth="yes"/>
      <point x="96" y="464" type="line"/>
      <point x="29" y="464" type="line"/>
      <point x="22" y="378" type="line"/>
      <point x="27" y="370" type="line"/>
      <point x="97" y="370" type="line"/>
      <point x="99" y="192" type="line"/>
      <point x="91" y="0" type="line"/>
      <point x="249" y="0" type="line"/>
      <point x="242" y="207" type="line"/>
      <point x="244" y="370" type="line"/>
      <point x="416" y="370" type="line"/>
      <point x="420" y="191" type="line"/>
      <point x="412" y="0" type="line"/>
      <point x="571" y="0" type="line"/>
      <point x="563" y="207" type="line"/>
      <point x="572" y="468" type="line"/>
      <point x="563" y="475" type="line"/>
      <point x="477" y="464" type="line"/>
      <point x="246" y="464" type="line"/>
      <point x="246" y="525" type="line"/>
      <point x="248" y="573"/>
      <point x="268" y="595"/>
      <point x="312" y="595" type="curve" smooth="yes"/>
      <point x="343" y="595"/>
      <point x="381" y="584"/>
      <point x="434" y="560" type="curve"/>
      <point x="449" y="567" type="line"/>
      <point x="467" y="689" type="line"/>
      <point x="413" y="700"/>
      <point x="375" y="705"/>
      <point x="329" y="705" type="curve" smooth="yes"/>
    </contour>
  </outline>
</glyph>
<glyph name="I.ss01" format="1">
  <advance width="289"/>
  <outline>
    <contour>
      <point x="-100" y="453" type="line"/>
      <point x="389" y="453" type="line"/>
      <point x="389" y="508" type="line"/>
      <point x="-100" y="508" type="line"/>
    </contour>
    <contour>
      <point x="-100" y="0" type="line"/>
      <point x="389" y="0" type="line"/>
      <point x="389" y="55" type="line"/>
      <point x="-100" y="55" type="line"/>
    </contour>
    <contour>
      <point x="65" y="508" type="line"/>
      <point x="72" y="149" type="line"/>
      <point x="65" y="0" type="line"/>
      <point x="216" y="0" type="line"/>
      <point x="209" y="164" type="line"/>
      <point x="218" y="508" type="line"/>
    </contour>
    <contour>
      <point x="226" y="8" type="move" name="ogonek"/>
    </contour>
    <contour>
      <point x="146" y="508" type="move" name="top"/>
    </contour>
  </outline>
</glyph>
<glyph name="Q.corta" format="1">
  <advance width="654"/>
  <outline>
    <contour>
      <point x="137" y="655"/>
      <point x="24" y="532"/>
      <point x="24" y="313" type="curve" smooth="yes"/>
      <point x="24" y="107"/>
      <point x="128" y="-11"/>
      <point x="312" y="-11" type="curve" smooth="yes"/>
      <point x="511" y="-11"/>
      <point x="624" y="116"/>
      <point x="624" y="337" type="curve" smooth="yes"/>
      <point x="624" y="541"/>
      <point x="520" y="655"/>
      <point x="337" y="655" type="curve" smooth="yes"/>
    </contour>
    <contour>
      <point x="310" y="7" type="line"/>
      <point x="389" y="-66"/>
      <point x="480" y="-130"/>
      <point x="579" y="-191" type="curve"/>
      <point x="591" y="-185" type="line"/>
      <point x="624" y="-156"/>
      <point x="648" y="-121"/>
      <point x="669" y="-80" type="curve"/>
      <point x="662" y="-65" type="line"/>
      <point x="573" y="-30"/>
      <point x="496" y="12"/>
      <point x="422" y="60" type="curve"/>
    </contour>
    <contour>
      <point x="418" y="525"/>
      <point x="454" y="470"/>
      <point x="454" y="306" type="curve" smooth="yes"/>
      <point x="454" y="162"/>
      <point x="418" y="112"/>
      <point x="326" y="112" type="curve" smooth="yes"/>
      <point x="229" y="112"/>
      <point x="193" y="167"/>
      <point x="193" y="333" type="curve" smooth="yes"/>
      <point x="193" y="476"/>
      <point x="228" y="525"/>
      <point x="321" y="525" type="curve" smooth="yes"/>
    </contour>
  </outline>
</glyph>
<glyph name="V.ss01" format="1">
  <advance width="527"/>
  <outline>
    <contour>
      <point x="-100" y="453" type="line"/>
      <point x="627" y="453" type="line"/>
      <point x="627" y="508" type="line"/>
      <point x="-100" y="508" type="line"/>
    </contour>
    <contour>
      <point x="-100" y="0" type="line"/>
      <point x="627" y="0" type="line"/>
      <point x="627" y="55" type="line"/>
      <point x="-100" y="55" type="line"/>
    </contour>
    <contour>
      <point x="369" y="498" type="line"/>
      <point x="354" y="410" type="line"/>
      <point x="268" y="139" type="line"/>
      <point x="259" y="139" type="line"/>
      <point x="187" y="419" type="line"/>
      <point x="172" y="498" type="line"/>
      <point x="27" y="498" type="line"/>
      <point x="174" y="10" type="line"/>
      <point x="348" y="10" type="line"/>
      <point x="510" y="498" type="line"/>
    </contour>
  </outline>
</glyph>
<glyph name="X.ss01" format="1">
  <advance width="544"/>
  <outline>
    <contour>
      <point x="-100" y="453" type="line"/>
      <point x="644" y="453" type="line"/>
      <point x="644" y="508" type="line"/>
      <point x="-100" y="508" type="line"/>
    </contour>
    <contour>
      <point x="-100" y="0" type="line"/>
      <point x="644" y="0" type="line"/>
      <point x="644" y="55" type="line"/>
      <point x="-100" y="55" type="line"/>
    </contour>
    <contour>
      <point x="363" y="482" type="line"/>
      <point x="341" y="434" type="line"/>
      <point x="281" y="349" type="line"/>
      <point x="226" y="428" type="line"/>
      <point x="201" y="482" type="line"/>
      <point x="40" y="482" type="line"/>
      <point x="192" y="248" type="line"/>
      <point x="43" y="30" type="line"/>
      <point x="179" y="30" type="line"/>
      <point x="202" y="77" type="line"/>
      <point x="270" y="165" type="line"/>
      <point x="327" y="84" type="line"/>
      <point x="350" y="30" type="line"/>
      <point x="511" y="30" type="line"/>
      <point x="361" y="268" type="line"/>
      <point x="502" y="482" type="line"/>
    </contour>
  </outline>
</glyph>
<glyph name="breve.cap" format="1">
  <advance width="388"/>
  <outline>
    <contour>
      <point x="300" y="704" type="line"/>
      <point x="281" y="670"/>
      <point x="244" y="651"/>
      <point x="198" y="651" type="curve" smooth="yes"/>
      <point x="147" y="651"/>
      <point x="109" y="670"/>
      <point x="90" y="704" type="curve"/>
      <point x="67" y="704" type="line"/>
      <point x="33" y="655" type="line"/>
      <point x="58" y="582"/>
      <point x="114" y="541"/>
      <point x="192" y="541" type="curve" smooth="yes"/>
      <point x="271" y="541"/>
      <point x="329" y="582"/>
      <point x="356" y="655" type="curve" smooth="yes"/>
      <point x="322" y="704" type="line"/>
    </contour>
    <contour>
      <point x="194" y="468" type="move" name="_top"/>
    </contour>
  </outline>
</glyph>
<glyph name="circumflexgrave" format="1">
  <advance width="388"/>
  <outline>
    <contour>
      <point x="208" y="807" type="line"/>
      <point x="204" y="796" type="line"/>
      <point x="305" y="662" type="line"/>
      <point x="315" y="662" type="line"/>
      <point x="368" y="702" type="line"/>
      <point x="298" y="836" type="line"/>
      <point x="287" y="841" type="line"/>
    </contour>
    <component base="circumflex.cap" yOffset="-20"/>
    <contour>
      <point x="194" y="468" type="move" name="_top"/>
    </contour>
  </outline>
</glyph>
<glyph name="circumflexhookabove" format="1">
  <advance width="388"/>
  <outline>
    <component base="circumflex.cap" yOffset="-20"/>
    <component base="hookabove" xOffset="125" yOffset="169" xScale="0.95" yScale="0.95"/>
    <contour>
      <point x="194" y="468" type="move" name="_top"/>
    </contour>
  </outline>
</glyph>
<glyph name="dotlessi.sc" format="1">
  <advance width="289"/>
  <outline>
    <component base="i.sc"/>
    <contour>
      <point x="226" y="8" type="move" name="ogonek"/>
    </contour>
    <contour>
      <point x="146" y="508" type="move" name="top"/>
    </contour>
  </outline>
</glyph>
<glyph name="eight.dnom" format="1">
  <advance width="370"/>
  <outline>
    <contour>
      <point x="103" y="395"/>
      <point x="43" y="352"/>
      <point x="43" y="279" type="curve" smooth="yes"/>
      <point x="43" y="232"/>
      <point x="71" y="205"/>
      <point x="107" y="187" type="curve"/>
      <point x="107" y="183" type="line"/>
      <point x="59" y="164"/>
      <point x="32" y="138"/>
      <point x="32" y="93" type="curve" smooth="yes"/>
      <point x="32" y="36"/>
      <point x="81" y="-7"/>
      <point x="174" y="-7" type="curve" smooth="yes"/>
      <point x="271" y="-7"/>
      <point x="335" y="38"/>
      <point x="335" y="114" type="curve" smooth="yes"/>
      <point x="335" y="161"/>
      <point x="304" y="186"/>
      <point x="267" y="204" type="curve"/>
      <point x="267" y="209" type="line"/>
      <point x="305" y="232"/>
      <point x="325" y="259"/>
      <point x="325" y="296" type="curve" smooth="yes"/>
      <point x="325" y="356"/>
      <point x="277" y="395"/>
      <point x="195" y="395" type="curve" smooth="yes"/>
    </contour>
    <contour>
      <point x="208" y="142"/>
      <point x="235" y="130"/>
      <point x="235" y="105" type="curve" smooth="yes"/>
      <point x="235" y="87"/>
      <point x="220" y="69"/>
      <point x="185" y="69" type="curve" smooth="yes"/>
      <point x="151" y="69"/>
      <point x="134" y="86"/>
      <point x="134" y="110" type="curve" smooth="yes"/>
      <point x="134" y="133"/>
      <point x="149" y="145"/>
      <point x="176" y="154" type="curve"/>
    </contour>
    <contour>
      <point x="212" y="316"/>
      <point x="228" y="303"/>
      <point x="228" y="282" type="curve" smooth="yes"/>
      <point x="228" y="263"/>
      <point x="216" y="249"/>
      <point x="197" y="235" type="curve"/>
      <point x="168" y="247"/>
      <point x="144" y="259"/>
      <point x="144" y="283" type="curve" smooth="yes"/>
      <point x="144" y="303"/>
      <point x="158" y="316"/>
      <point x="186" y="316" type="curve" smooth="yes"/>
    </contour>
  </outline>
</glyph>
<glyph name="eight.sinf" format="1">
  <advance width="370"/>
  <outline>
    <contour>
      <point x="103" y="275"/>
      <point x="43" y="232"/>
      <point x="43" y="159" type="curve" smooth="yes"/>
      <point x="43" y="112"/>
      <point x="71" y="85"/>
      <point x="107" y="67" type="curve"/>
      <point x="107" y="63" type="line"/>
      <point x="59" y="44"/>
      <point x="32" y="18"/>
      <point x="32" y="-27" type="curve" smooth="yes"/>
      <point x="32" y="-84"/>
      <point x="81" y="-127"/>
      <point x="174" y="-127" type="curve" smooth="yes"/>
      <point x="271" y="-127"/>
      <point x="335" y="-82"/>
      <point x="335" y="-6" type="curve" smooth="yes"/>
      <point x="335" y="41"/>
      <point x="304" y="66"/>
      <point x="267" y="84" type="curve"/>
      <point x="267" y="89" type="line"/>
      <point x="305" y="112"/>
      <point x="325" y="139"/>
      <point x="325" y="176" type="curve" smooth="yes"/>
      <point x="325" y="236"/>
      <point x="277" y="275"/>
      <point x="195" y="275" type="curve" smooth="yes"/>
    </contour>
    <contour>
      <point x="208" y="22"/>
      <point x="235" y="10"/>
      <point x="235" y="-15" type="curve" smooth="yes"/>
      <point x="235" y="-33"/>
      <point x="220" y="-51"/>
      <point x="185" y="-51" type="curve" smooth="yes"/>
      <point x="151" y="-51"/>
      <point x="134" y="-34"/>
      <point x="134" y="-10" type="curve" smooth="yes"/>
      <point x="134" y="13"/>
      <point x="149" y="25"/>
      <point x="176" y="34" type="curve"/>
    </contour>
    <contour>
      <point x="212" y="196"/>
      <point x="228" y="183"/>
      <point x="228" y="162" type="curve" smooth="yes"/>
      <point x="228" y="143"/>
      <point x="216" y="129"/>
      <point x="197" y="115" type="curve"/>
      <point x="168" y="127"/>
      <point x="144" y="139"/>
      <point x="144" y="163" type="curve" smooth="yes"/>
      <point x="144" y="183"/>
      <point x="158" y="196"/>
      <point x="186" y="196" type="curve" smooth="yes"/>
    </contour>
  </outline>
</glyph>
<glyph name="f.l" format="1">
  <advance width="361"/>
  <outline>
    <contour>
      <point x="177" y="710"/>
      <point x="94" y="639"/>
      <point x="94" y="507" type="curve"/>
      <point x="99" y="191" type="line"/>
      <point x="91" y="0" type="line"/>
      <point x="249" y="0" type="line"/>
      <point x="242" y="206" type="line"/>
      <point x="247" y="530" type="line"/>
      <point x="248" y="583"/>
      <point x="276" y="599"/>
      <point x="315" y="599" type="curve" smooth="yes"/>
      <point x="348" y="599"/>
      <point x="389" y="589"/>
      <point x="446" y="563" type="curve"/>
      <point x="457" y="570" type="line"/>
      <point x="490" y="681" type="line"/>
      <point x="429" y="700"/>
      <point x="376" y="710"/>
      <point x="322" y="710" type="curve" smooth="yes"/>
    </contour>
    <contour>
      <point x="29" y="464" type="line"/>
      <point x="22" y="378" type="line"/>
      <point x="27" y="370" type="line"/>
      <point x="353" y="370" type="line"/>
      <point x="360" y="455" type="line"/>
      <point x="356" y="464" type="line"/>
    </contour>
  </outline>
</glyph>
<glyph name="f.t" format="1">
  <advance width="336"/>
  <outline>
    <contour>
      <point x="173" y="690"/>
      <point x="94" y="620"/>
      <point x="95" y="492" type="curve"/>
      <point x="99" y="192" type="line"/>
      <point x="91" y="0" type="line"/>
      <point x="249" y="0" type="line"/>
      <point x="242" y="207" type="line"/>
      <point x="247" y="521" type="line"/>
      <point x="248" y="562"/>
      <point x="263" y="581"/>
      <point x="296" y="581" type="curve" smooth="yes"/>
      <point x="312" y="581"/>
      <point x="332" y="577"/>
      <point x="363" y="565" type="curve"/>
      <point x="374" y="572" type="line"/>
      <point x="382" y="683" type="line"/>
      <point x="359" y="688"/>
      <point x="336" y="690"/>
      <point x="311" y="690" type="curve" smooth="yes"/>
    </contour>
    <contour>
      <point x="29" y="464" type="line"/>
      <point x="22" y="378" type="line"/>
      <point x="27" y="370" type="line"/>
      <point x="478" y="370" type="line"/>
      <point x="485" y="455" type="line"/>
      <point x="480" y="464" type="line"/>
    </contour>
    <contour>
      <point x="152" y="0" type="move" name="bottom"/>
    </contour>
    <contour>
      <point x="260" y="749" type="move" name="top"/>
    </contour>
  </outline>
</glyph>
<glyph name="four.lf" format="1">
  <advance width="510"/>
  <outline>
    <contour>
      <point x="257" y="586" type="line"/>
      <point x="18" y="241" type="line"/>
      <point x="18" y="140" type="line"/>
      <point x="28" y="127" type="line"/>
      <point x="125" y="130" type="line"/>
      <point x="357" y="130" type="line"/>
      <point x="477" y="127" type="line"/>
      <point x="484" y="238" type="line"/>
      <point x="475" y="252" type="line"/>
      <point x="153" y="252" type="line"/>
      <point x="263" y="410" type="line"/>
      <point x="272" y="410" type="line"/>
      <point x="273" y="221" type="line"/>
      <point x="267" y="2" type="line"/>
      <point x="275" y="-8" type="line"/>
      <point x="399" y="0" type="line"/>
      <point x="407" y="11" type="line"/>
      <point x="398" y="191" type="line"/>
      <point x="403" y="586" type="line"/>
    </contour>
  </outline>
</glyph>
<glyph name="four.tosf" format="1">
  <advance width="475"/>
  <outline>
    <contour>
      <point x="236" y="509" type="line"/>
      <point x="10" y="157" type="line"/>
      <point x="10" y="56" type="line"/>
      <point x="20" y="43" type="line"/>
      <point x="115" y="46" type="line"/>
      <point x="335" y="46" type="line"/>
      <point x="452" y="43" type="line"/>
      <point x="459" y="154" type="line"/>
      <point x="450" y="168" type="line"/>
      <point x="144" y="168" type="line"/>
      <point x="243" y="332" type="line"/>
      <point x="252" y="332" type="line"/>
      <point x="253" y="137" type="line"/>
      <point x="246" y="-86" type="line"/>
      <point x="255" y="-96" type="line"/>
      <point x="378" y="-88" type="line"/>
      <point x="387" y="-77" type="line"/>
      <point x="378" y="107" type="line"/>
      <point x="382" y="509" type="line"/>
    </contour>
  </outline>
</glyph>
<glyph name="g.sups" format="1">
  <advance width="354"/>
  <outline>
    <contour>
      <point x="94" y="445" type="line"/>
      <point x="75" y="432"/>
      <point x="57" y="418"/>
      <point x="43" y="403" type="curve"/>
      <point x="42" y="286"/>
      <point x="241" y="343"/>
      <point x="241" y="290" type="curve" smooth="yes"/>
      <point x="241" y="267"/>
      <point x="220" y="259"/>
      <point x="187" y="259" type="curve" smooth="yes"/>
      <point x="150" y="259"/>
      <point x="131" y="271"/>
      <point x="131" y="294" type="curve" smooth="yes"/>
      <point x="131" y="305"/>
      <point x="137" y="315"/>
      <point x="150" y="324" type="curve"/>
      <point x="90" y="342" type="line"/>
      <point x="90" y="331" type="line"/>
      <point x="69" y="318"/>
      <point x="48" y="303"/>
      <point x="36" y="284" type="curve"/>
      <point x="36" y="230"/>
      <point x="85" y="194"/>
      <point x="177" y="194" type="curve" smooth="yes"/>
      <point x="277" y="194"/>
      <point x="341" y="241"/>
      <point x="341" y="312" type="curve" smooth="yes"/>
      <point x="341" y="434"/>
      <point x="139" y="381"/>
      <point x="139" y="423" type="curve" smooth="yes"/>
      <point x="139" y="427"/>
      <point x="140" y="431"/>
      <point x="146" y="437" type="curve"/>
      <point x="94" y="454" type="line"/>
    </contour>
    <contour>
      <point x="215" y="580"/>
      <point x="228" y="569"/>
      <point x="228" y="541" type="curve" smooth="yes"/>
      <point x="228" y="513"/>
      <point x="213" y="500"/>
      <point x="184" y="500" type="curve" smooth="yes"/>
      <point x="155" y="500"/>
      <point x="142" y="513"/>
      <point x="142" y="541" type="curve" smooth="yes"/>
      <point x="142" y="568"/>
      <point x="155" y="580"/>
      <point x="186" y="580" type="curve" smooth="yes"/>
    </contour>
    <contour>
      <point x="95" y="652"/>
      <point x="39" y="610"/>
      <point x="39" y="539" type="curve" smooth="yes"/>
      <point x="39" y="471"/>
      <point x="92" y="431"/>
      <point x="182" y="431" type="curve" smooth="yes"/>
      <point x="275" y="431"/>
      <point x="332" y="473"/>
      <point x="332" y="544" type="curve" smooth="yes"/>
      <point x="332" y="606"/>
      <point x="272" y="652"/>
      <point x="187" y="652" type="curve" smooth="yes"/>
    </contour>
    <contour>
      <point x="329" y="657"/>
      <point x="293" y="644"/>
      <point x="258" y="638" type="curve"/>
      <point x="317" y="567" type="line"/>
      <point x="325" y="584" type="line"/>
      <point x="341" y="585"/>
      <point x="353" y="586"/>
      <point x="370" y="590" type="curve"/>
      <point x="370" y="663" type="line"/>
      <point x="362" y="670" type="line"/>
    </contour>
    <contour>
      <point x="193" y="315" type="move" name="top"/>
    </contour>
  </outline>
</glyph>
<glyph name="h.sups" format="1">
  <advance width="379"/>
  <outline>
    <contour>
      <point x="206" y="641"/>
      <point x="180" y="622"/>
      <point x="156" y="599" type="curve"/>
      <point x="138" y="599" type="line"/>
      <point x="137" y="531" type="line"/>
      <point x="158" y="549"/>
      <point x="177" y="556"/>
      <point x="194" y="556" type="curve" smooth="yes"/>
      <point x="218" y="556"/>
      <point x="232" y="541"/>
      <point x="232" y="511" type="curve"/>
      <point x="225" y="327" type="line"/>
      <point x="343" y="327" type="line"/>
      <point x="339" y="468" type="line"/>
      <point x="341" y="560" type="line" smooth="yes"/>
      <point x="343" y="617"/>
      <point x="306" y="648"/>
      <point x="239" y="648" type="curve"/>
    </contour>
    <contour>
      <point x="193" y="447" type="move"/>
    </contour>
    <contour>
      <point x="40" y="795" type="line"/>
      <point x="43" y="457" type="line"/>
      <point x="38" y="327" type="line"/>
      <point x="156" y="327" type="line"/>
      <point x="151" y="468" type="line"/>
      <point x="156" y="803" type="line"/>
    </contour>
    <contour>
      <point x="192" y="160" type="move" name="center"/>
    </contour>
    <contour>
      <point x="98" y="447" type="move" name="top"/>
    </contour>
  </outline>
</glyph>
<glyph name="macron.i" format="1">
  <advance width="388"/>
  <outline>
    <contour>
      <point x="79" y="673" type="line"/>
      <point x="71" y="585" type="line"/>
      <point x="81" y="574" type="line"/>
      <point x="311" y="574" type="line"/>
      <point x="318" y="662" type="line"/>
      <point x="308" y="673" type="line"/>
    </contour>
    <contour>
      <point x="195" y="468" type="move" name="_top"/>
    </contour>
  </outline>
</glyph>
<glyph name="n.sups" format="1">
  <advance width="379"/>
  <outline>
    <contour>
      <point x="207" y="641"/>
      <point x="180" y="622"/>
      <point x="156" y="599" type="curve"/>
      <point x="137" y="599" type="line"/>
      <point x="136" y="531" type="line"/>
      <point x="157" y="549"/>
      <point x="177" y="556"/>
      <point x="194" y="556" type="curve" smooth="yes"/>
      <point x="218" y="556"/>
      <point x="232" y="541"/>
      <point x="232" y="511" type="curve"/>
      <point x="225" y="327" type="line"/>
      <point x="343" y="327" type="line"/>
      <point x="339" y="468" type="line"/>
      <point x="342" y="560" type="line" smooth="yes"/>
      <point x="343" y="617"/>
      <point x="306" y="648"/>
      <point x="240" y="648" type="curve"/>
    </contour>
    <contour>
      <point x="40" y="639" type="line"/>
      <point x="43" y="457" type="line"/>
      <point x="38" y="327" type="line"/>
      <point x="156" y="327" type="line"/>
      <point x="151" y="468" type="line"/>
      <point x="151" y="647" type="line"/>
    </contour>
    <contour>
      <point x="198" y="0" type="move" name="bottom"/>
    </contour>
    <contour>
      <point x="207" y="319" type="move" name="top"/>
    </contour>
  </outline>
</glyph>
<glyph name="nine.lf" format="1">
  <advance width="485"/>
  <outline>
    <contour>
      <point x="100" y="597"/>
      <point x="28" y="498"/>
      <point x="28" y="396" type="curve" smooth="yes"/>
      <point x="28" y="302"/>
      <point x="88" y="219"/>
      <point x="197" y="219" type="curve" smooth="yes"/>
      <point x="228" y="219"/>
      <point x="258" y="227"/>
      <point x="284" y="240" type="curve"/>
      <point x="312" y="207" type="line"/>
      <point x="333" y="359" type="line"/>
      <point x="303" y="340"/>
      <point x="273" y="330"/>
      <point x="245" y="330" type="curve" smooth="yes"/>
      <point x="195" y="330"/>
      <point x="171" y="359"/>
      <point x="171" y="413" type="curve" smooth="yes"/>
      <point x="171" y="467"/>
      <point x="197" y="494"/>
      <point x="243" y="494" type="curve" smooth="yes"/>
      <point x="303" y="494"/>
      <point x="318" y="449"/>
      <point x="318" y="367" type="curve" smooth="yes"/>
      <point x="318" y="213"/>
      <point x="258" y="151"/>
      <point x="61" y="75" type="curve"/>
      <point x="61" y="60" type="line"/>
      <point x="166" y="-10" type="line"/>
      <point x="174" y="-10" type="line"/>
      <point x="356" y="73"/>
      <point x="462" y="209"/>
      <point x="462" y="369" type="curve" smooth="yes"/>
      <point x="462" y="511"/>
      <point x="384" y="597"/>
      <point x="248" y="597" type="curve" smooth="yes"/>
    </contour>
  </outline>
</glyph>
<glyph name="nine.sinf" format="1">
  <advance width="357"/>
  <outline>
    <contour>
      <point x="73" y="276"/>
      <point x="23" y="207"/>
      <point x="23" y="141" type="curve"/>
      <point x="23" y="80"/>
      <point x="66" y="22"/>
      <point x="143" y="22" type="curve" smooth="yes"/>
      <point x="161" y="22"/>
      <point x="181" y="26"/>
      <point x="197" y="32" type="curve"/>
      <point x="219" y="9" type="line"/>
      <point x="234" y="118" type="line"/>
      <point x="215" y="108"/>
      <point x="197" y="104"/>
      <point x="180" y="104" type="curve" smooth="yes"/>
      <point x="149" y="104"/>
      <point x="134" y="120"/>
      <point x="134" y="152" type="curve"/>
      <point x="134" y="184"/>
      <point x="149" y="201"/>
      <point x="178" y="201" type="curve"/>
      <point x="217" y="201"/>
      <point x="224" y="172"/>
      <point x="224" y="122" type="curve"/>
      <point x="224" y="22"/>
      <point x="186" y="-14"/>
      <point x="51" y="-64" type="curve"/>
      <point x="51" y="-76" type="line"/>
      <point x="129" y="-127" type="line"/>
      <point x="135" y="-127" type="line"/>
      <point x="262" y="-71"/>
      <point x="336" y="19"/>
      <point x="336" y="123" type="curve"/>
      <point x="336" y="218"/>
      <point x="278" y="276"/>
      <point x="181" y="276" type="curve"/>
    </contour>
  </outline>
</glyph>
<glyph name="one.dnom" format="1">
  <advance width="284"/>
  <outline>
    <contour>
      <point x="7" y="346" type="line"/>
      <point x="7" y="251" type="line"/>
      <point x="15" y="245" type="line"/>
      <point x="94" y="260" type="line"/>
      <point x="94" y="127" type="line"/>
      <point x="90" y="0" type="line"/>
      <point x="215" y="0" type="line"/>
      <point x="210" y="139" type="line"/>
      <point x="216" y="382" type="line"/>
      <point x="198" y="394" type="line"/>
    </contour>
  </outline>
</glyph>
<glyph name="one.lf" format="1">
  <advance width="382"/>
  <outline>
    <contour>
      <point x="3" y="523" type="line"/>
      <point x="3" y="396" type="line"/>
      <point x="14" y="388" type="line"/>
      <point x="134" y="413" type="line"/>
      <point x="135" y="192" type="line"/>
      <point x="128" y="0" type="line"/>
      <point x="288" y="0" type="line"/>
      <point x="281" y="209" type="line"/>
      <point x="290" y="578" type="line"/>
      <point x="267" y="595" type="line"/>
    </contour>
  </outline>
</glyph>
<glyph name="one.tosf" format="1">
  <advance width="475"/>
  <outline>
    <contour>
      <point x="33" y="445" type="line"/>
      <point x="33" y="317" type="line"/>
      <point x="45" y="309" type="line"/>
      <point x="179" y="335" type="line"/>
      <point x="179" y="192" type="line"/>
      <point x="172" y="0" type="line"/>
      <point x="332" y="0" type="line"/>
      <point x="326" y="209" type="line"/>
      <point x="334" y="499" type="line"/>
      <point x="311" y="516" type="line"/>
    </contour>
  </outline>
</glyph>
<glyph name="right" format="1">
  <advance width="425"/>
  <outline>
    <contour>
      <point x="85" y="81" type="line"/>
      <point x="387" y="233" type="line"/>
      <point x="85" y="384" type="line"/>
    </contour>
  </outline>
</glyph>
<glyph name="ringacute" format="1">
  <advance width="388"/>
  <outline>
    <component base="ring" xOffset="0.667" yOffset="-20.667"/>
    <component base="acute.cap" xOffset="-62" yOffset="212" xScale="0.99" yScale="0.99"/>
    <contour>
      <point x="194" y="448" type="move" name="_top"/>
    </contour>
  </outline>
</glyph>
<glyph name="seven.lf" format="1">
  <advance width="430"/>
  <outline>
    <contour>
      <point x="12" y="458" type="line"/>
      <point x="20" y="445" type="line"/>
      <point x="118" y="455" type="line"/>
      <point x="252" y="455" type="line"/>
      <point x="63" y="48" type="line"/>
      <point x="72" y="24" type="line"/>
      <point x="199" y="-12" type="line"/>
      <point x="261" y="152" type="line"/>
      <point x="405" y="472" type="line"/>
      <point x="405" y="588" type="line"/>
      <point x="353" y="586" type="line"/>
      <point x="144" y="586" type="line"/>
      <point x="22" y="590" type="line"/>
    </contour>
  </outline>
</glyph>
<glyph name="six.dnom" format="1">
  <advance width="356"/>
  <outline>
    <contour>
      <point x="222" y="396" type="line"/>
      <point x="96" y="339"/>
      <point x="22" y="249"/>
      <point x="22" y="145" type="curve"/>
      <point x="22" y="51"/>
      <point x="80" y="-7"/>
      <point x="177" y="-7" type="curve"/>
      <point x="285" y="-7"/>
      <point x="334" y="61"/>
      <point x="334" y="128" type="curve"/>
      <point x="334" y="189"/>
      <point x="293" y="246"/>
      <point x="214" y="246" type="curve" smooth="yes"/>
      <point x="196" y="246"/>
      <point x="177" y="242"/>
      <point x="160" y="235" type="curve"/>
      <point x="139" y="260" type="line"/>
      <point x="124" y="151" type="line"/>
      <point x="143" y="160"/>
      <point x="160" y="165"/>
      <point x="177" y="165" type="curve" smooth="yes"/>
      <point x="208" y="165"/>
      <point x="223" y="149"/>
      <point x="223" y="117" type="curve"/>
      <point x="223" y="84"/>
      <point x="208" y="67"/>
      <point x="179" y="67" type="curve"/>
      <point x="141" y="67"/>
      <point x="134" y="96"/>
      <point x="134" y="146" type="curve"/>
      <point x="134" y="247"/>
      <point x="172" y="282"/>
      <point x="307" y="333" type="curve"/>
      <point x="307" y="344" type="line"/>
      <point x="228" y="396" type="line"/>
    </contour>
  </outline>
</glyph>
<glyph name="two.dnom" format="1">
  <advance width="367"/>
  <outline>
    <contour>
      <point x="135" y="394"/>
      <point x="82" y="375"/>
      <point x="29" y="343" type="curve"/>
      <point x="50" y="252" type="line"/>
      <point x="63" y="252" type="line"/>
      <point x="93" y="279"/>
      <point x="130" y="295"/>
      <point x="156" y="295" type="curve" smooth="yes"/>
      <point x="179" y="295"/>
      <point x="190" y="284"/>
      <point x="190" y="268" type="curve" smooth="yes"/>
      <point x="190" y="243"/>
      <point x="163" y="213"/>
      <point x="123" y="170" type="curve" smooth="yes"/>
      <point x="31" y="74" type="line"/>
      <point x="31" y="3" type="line"/>
      <point x="37" y="-2" type="line"/>
      <point x="63" y="0" type="line"/>
      <point x="231" y="0" type="line"/>
      <point x="331" y="-5" type="line"/>
      <point x="344" y="90" type="line"/>
      <point x="338" y="98" type="line"/>
      <point x="269" y="92" type="line"/>
      <point x="192" y="92" type="line"/>
      <point x="190" y="95" type="line"/>
      <point x="235" y="149" type="line" smooth="yes"/>
      <point x="291" y="216"/>
      <point x="314" y="258"/>
      <point x="314" y="297" type="curve" smooth="yes"/>
      <point x="314" y="360"/>
      <point x="258" y="394"/>
      <point x="188" y="394" type="curve" smooth="yes"/>
    </contour>
  </outline>
</glyph>
<glyph name="zero.lf" format="1">
  <advance width="517"/>
  <outline>
    <contour>
      <point x="117" y="596"/>
      <point x="33" y="483"/>
      <point x="33" y="282" type="curve" smooth="yes"/>
      <point x="33" y="94"/>
      <point x="110" y="-10"/>
      <point x="248" y="-10" type="curve" smooth="yes"/>
      <point x="399" y="-10"/>
      <point x="482" y="102"/>
      <point x="482" y="303" type="curve" smooth="yes"/>
      <point x="482" y="491"/>
      <point x="406" y="596"/>
      <point x="268" y="596" type="curve" smooth="yes"/>
    </contour>
    <contour>
      <point x="327" y="447"/>
      <point x="360" y="396"/>
      <point x="360" y="285" type="curve" smooth="yes"/>
      <point x="360" y="179"/>
      <point x="328" y="129"/>
      <point x="257" y="129" type="curve" smooth="yes"/>
      <point x="187" y="129"/>
      <point x="156" y="182"/>
      <point x="156" y="292" type="curve" smooth="yes"/>
      <point x="156" y="398"/>
      <point x="186" y="447"/>
      <point x="256" y="447" type="curve" smooth="yes"/>
    </contour>
  </outline>
</glyph>
